<svg xmlns="http://www.w3.org/2000/svg" width="161" height="41" fill="none"><g clip-path="url(#a)"><path fill="#000" d="M153.5.25H7.5a7 7 0 0 0-7 7v26a7 7 0 0 0 7 7h146a7 7 0 0 0 7-7v-26a7 7 0 0 0-7-7"/><path fill="#000" d="M153.5.25H7.5a7 7 0 0 0-7 7v26a7 7 0 0 0 7 7h146a7 7 0 0 0 7-7v-26a7 7 0 0 0-7-7"/><path fill="#fff" fill-rule="evenodd" d="M48.509 10.249c-.282 0-.528-.218-.528-.495 0-.278.246-.504.528-.504.291 0 .528.226.528.504 0 .277-.237.495-.528.495M43.5 15.146V9.354h.91v5.028h2.758v.764zm4.608-4.194v4.194h.82v-4.194zm1.696 3.647.391-.573c.3.312.883.599 1.475.599.619 0 .946-.243.946-.6 0-.416-.5-.555-1.065-.677h-.005c-.745-.166-1.615-.358-1.615-1.259 0-.668.601-1.241 1.675-1.241.755 0 1.302.26 1.675.599l-.364.547c-.255-.295-.747-.512-1.302-.512s-.9.208-.9.547c0 .364.472.486 1.018.607.765.165 1.675.365 1.675 1.329 0 .72-.619 1.285-1.775 1.285-.737 0-1.383-.217-1.83-.651m4.763-.382c0 .66.355 1.033 1.047 1.033.427 0 .682-.113.855-.27l-.21-.59a.65.65 0 0 1-.445.165c-.282 0-.428-.217-.428-.512v-2.405h.892v-.686h-.892V9.806h-.82v1.146h-.727v.686h.728zm2.305-1.173c0-1.215.92-2.196 2.203-2.196 1.32 0 2.139.98 2.139 2.266v.191h-3.477c.064.712.61 1.303 1.493 1.303.464 0 .974-.174 1.301-.495l.383.512c-.437.408-1.056.625-1.766.625-1.31 0-2.276-.886-2.276-2.206m.856-.303c.045-.573.464-1.25 1.347-1.25.928 0 1.32.694 1.338 1.25zm7.439 2.405v-2.683c0-.695-.373-.92-.938-.92-.51 0-.974.295-1.21.607v2.996h-.82v-4.194h.82v.59a2.14 2.14 0 0 1 1.556-.694c.929 0 1.411.469 1.411 1.354v2.944zm4.11-2.102c0 1.216.856 2.206 2.221 2.206 1.374 0 2.22-.99 2.22-2.206 0-1.206-.846-2.196-2.22-2.196-1.365 0-2.22.99-2.22 2.196m2.221 1.511c.883 0 1.365-.712 1.365-1.51 0-.79-.482-1.503-1.365-1.503-.874 0-1.365.712-1.365 1.502 0 .8.491 1.511 1.365 1.511m6.183-2.092v2.683h.819v-2.944c0-.885-.482-1.354-1.41-1.354-.683 0-1.266.356-1.557.694v-.59h-.82v4.194h.82V12.15c.236-.312.7-.608 1.21-.608.565 0 .938.226.938.92" clip-rule="evenodd"/><path fill="#fff" fill-rule="evenodd" d="M48.509 10.249c-.282 0-.528-.218-.528-.495 0-.278.246-.504.528-.504.291 0 .528.226.528.504 0 .277-.237.495-.528.495M43.5 15.146V9.354h.91v5.028h2.758v.764zm4.608-4.194v4.194h.82v-4.194zm1.696 3.647.391-.573c.3.312.883.599 1.475.599.619 0 .946-.243.946-.6 0-.416-.5-.555-1.065-.677h-.005c-.745-.166-1.615-.358-1.615-1.259 0-.668.601-1.241 1.675-1.241.755 0 1.302.26 1.675.599l-.364.547c-.255-.295-.747-.512-1.302-.512s-.9.208-.9.547c0 .364.472.486 1.018.607.765.165 1.675.365 1.675 1.329 0 .72-.619 1.285-1.775 1.285-.737 0-1.383-.217-1.83-.651m4.763-.382c0 .66.355 1.033 1.047 1.033.427 0 .682-.113.855-.27l-.21-.59a.65.65 0 0 1-.445.165c-.282 0-.428-.217-.428-.512v-2.405h.892v-.686h-.892V9.806h-.82v1.146h-.727v.686h.728zm2.305-1.173c0-1.215.92-2.196 2.203-2.196 1.32 0 2.139.98 2.139 2.266v.191h-3.477c.064.712.61 1.303 1.493 1.303.464 0 .974-.174 1.301-.495l.383.512c-.437.408-1.056.625-1.766.625-1.31 0-2.276-.886-2.276-2.206m.856-.303c.045-.573.464-1.25 1.347-1.25.928 0 1.32.694 1.338 1.25zm7.439 2.405v-2.683c0-.695-.373-.92-.938-.92-.51 0-.974.295-1.21.607v2.996h-.82v-4.194h.82v.59a2.14 2.14 0 0 1 1.556-.694c.929 0 1.411.469 1.411 1.354v2.944zm4.11-2.102c0 1.216.856 2.206 2.221 2.206 1.374 0 2.22-.99 2.22-2.206 0-1.206-.846-2.196-2.22-2.196-1.365 0-2.22.99-2.22 2.196m2.221 1.511c.883 0 1.365-.712 1.365-1.51 0-.79-.482-1.503-1.365-1.503-.874 0-1.365.712-1.365 1.502 0 .8.491 1.511 1.365 1.511m6.183-2.092v2.683h.819v-2.944c0-.885-.482-1.354-1.41-1.354-.683 0-1.266.356-1.557.694v-.59h-.82v4.194h.82V12.15c.236-.312.7-.608 1.21-.608.565 0 .938.226.938.92" clip-rule="evenodd"/><path fill="#fff" d="M46.672 31.25v-4.617l-3.969-6.656h1.945l2.875 4.976h.055l2.875-4.976h1.945l-3.976 6.656v4.617zm8.726.164c-2.359 0-3.898-1.633-3.898-4.273v-.016c0-2.625 1.555-4.25 3.89-4.25 2.344 0 3.907 1.617 3.907 4.25v.016c0 2.648-1.547 4.273-3.899 4.273M55.406 30c1.32 0 2.164-1.047 2.164-2.86v-.015c0-1.797-.86-2.836-2.18-2.836-1.296 0-2.163 1.04-2.163 2.836v.016c0 1.82.859 2.859 2.18 2.859m7.992 1.414c-1.804 0-2.836-1.164-2.836-3.055v-5.328h1.688v5c0 1.242.578 1.93 1.75 1.93 1.188 0 1.953-.852 1.953-2.133v-4.797h1.695v8.219h-1.695v-1.234h-.039c-.43.828-1.266 1.398-2.516 1.398m7.454-.164v-9.766h-3.454v-1.507h8.649v1.507h-3.445v9.766zm7.718.164c-1.804 0-2.836-1.164-2.836-3.055v-5.328h1.688v5c0 1.242.578 1.93 1.75 1.93 1.187 0 1.953-.852 1.953-2.133v-4.797h1.695v8.219h-1.695v-1.234h-.04c-.429.828-1.265 1.398-2.515 1.398m10.29 0c-1.18 0-2.094-.594-2.579-1.555h-.039v1.391h-1.687V19.977h1.687v4.453h.04c.491-.97 1.429-1.555 2.593-1.555 2.063 0 3.422 1.64 3.422 4.258v.008c0 2.617-1.352 4.273-3.438 4.273m-.446-1.453c1.328 0 2.156-1.07 2.156-2.82v-.008c0-1.735-.828-2.813-2.156-2.813-1.273 0-2.18 1.11-2.18 2.813v.008c0 1.71.899 2.82 2.18 2.82m8.695 1.453c-2.414 0-3.875-1.648-3.875-4.242v-.008c0-2.57 1.485-4.289 3.79-4.289s3.718 1.656 3.718 4.125v.57h-5.82c.031 1.555.883 2.461 2.226 2.461 1 0 1.665-.515 1.875-1.133l.024-.062h1.601l-.015.086c-.266 1.305-1.531 2.492-3.524 2.492m-.078-7.156c-1.094 0-1.937.742-2.086 2.117h4.125c-.14-1.422-.937-2.117-2.039-2.117"/><path fill="#fff" d="M97.11 31.414c-2.415 0-3.876-1.648-3.876-4.242v-.008c0-2.57 1.485-4.289 3.79-4.289s3.718 1.656 3.718 4.125v.57h-5.82c.031 1.555.883 2.461 2.226 2.461 1 0 1.665-.515 1.875-1.133l.024-.062h1.601l-.015.086c-.266 1.305-1.531 2.492-3.524 2.492m-.079-7.156c-1.094 0-1.937.742-2.086 2.117h4.125c-.14-1.422-.937-2.117-2.039-2.117M88.86 31.414c-1.18 0-2.094-.594-2.579-1.555h-.039v1.391h-1.687V19.977h1.687v4.453h.04c.491-.97 1.429-1.555 2.593-1.555 2.063 0 3.422 1.64 3.422 4.258v.008c0 2.617-1.352 4.273-3.438 4.273m-.446-1.453c1.328 0 2.156-1.07 2.156-2.82v-.008c0-1.735-.828-2.813-2.156-2.813-1.273 0-2.18 1.11-2.18 2.813v.008c0 1.71.899 2.82 2.18 2.82M78.57 31.414c-1.804 0-2.836-1.164-2.836-3.055v-5.328h1.688v5c0 1.242.578 1.93 1.75 1.93 1.187 0 1.953-.852 1.953-2.133v-4.797h1.695v8.219h-1.695v-1.234h-.04c-.429.828-1.265 1.398-2.515 1.398M70.852 31.25v-9.766h-3.454v-1.507h8.649v1.507h-3.445v9.766zM63.398 31.414c-1.804 0-2.836-1.164-2.836-3.055v-5.328h1.688v5c0 1.242.578 1.93 1.75 1.93 1.188 0 1.953-.852 1.953-2.133v-4.797h1.695v8.219h-1.695v-1.234h-.039c-.43.828-1.266 1.398-2.516 1.398M55.398 31.414c-2.359 0-3.898-1.633-3.898-4.273v-.016c0-2.625 1.555-4.25 3.89-4.25 2.344 0 3.907 1.617 3.907 4.25v.016c0 2.648-1.547 4.273-3.899 4.273M55.406 30c1.32 0 2.164-1.047 2.164-2.86v-.015c0-1.797-.86-2.836-2.18-2.836-1.296 0-2.163 1.04-2.163 2.836v.016c0 1.82.859 2.859 2.18 2.859M46.672 31.25v-4.617l-3.969-6.656h1.945l2.875 4.976h.055l2.875-4.976h1.945l-3.976 6.656v4.617z"/><path fill="red" d="M34.975 13.983a3.13 3.13 0 0 0-2.21-2.21c-1.949-.523-9.767-.523-9.767-.523s-7.818 0-9.767.523a3.13 3.13 0 0 0-2.21 2.21C10.5 15.932 10.5 20 10.5 20s0 4.069.523 6.018a3.13 3.13 0 0 0 2.21 2.21c1.949.523 9.767.523 9.767.523s7.818 0 9.767-.523a3.13 3.13 0 0 0 2.21-2.21C35.5 24.069 35.5 20 35.5 20s-.002-4.068-.525-6.017"/><path fill="#fff" d="M20.5 23.75 26.992 20 20.5 16.252z"/><path fill="red" d="M34.975 13.983a3.13 3.13 0 0 0-2.21-2.21c-1.949-.523-9.767-.523-9.767-.523s-7.818 0-9.767.523a3.13 3.13 0 0 0-2.21 2.21C10.5 15.932 10.5 20 10.5 20s0 4.069.523 6.018a3.13 3.13 0 0 0 2.21 2.21c1.949.523 9.767.523 9.767.523s7.818 0 9.767-.523a3.13 3.13 0 0 0 2.21-2.21C35.5 24.069 35.5 20 35.5 20s-.002-4.068-.525-6.017"/><path fill="#fff" d="M20.5 23.75 26.992 20 20.5 16.252z"/></g><defs><clipPath id="a"><path fill="#fff" d="M0 0h161v41H0z"/></clipPath></defs></svg>
