<svg xmlns="http://www.w3.org/2000/svg" width="160" height="41" fill="none"><g clip-path="url(#a)"><path fill="#000" d="M153 .5H7a7 7 0 0 0-7 7v26a7 7 0 0 0 7 7h146a7 7 0 0 0 7-7v-26a7 7 0 0 0-7-7"/><path fill="url(#b)" fill-rule="evenodd" d="M33.214 28.873c-.236.598-.778 1.439-1.548 2.031-.444.343-.975.67-1.703.885-.777.23-1.734.308-2.925.308H16.151c-1.191 0-2.148-.077-2.925-.308a5.1 5.1 0 0 1-1.703-.885c-.77-.592-1.312-1.433-1.548-2.03-.473-1.204-.478-2.57-.478-3.43V14.556c0-.86.005-2.226.478-3.43.236-.597.778-1.438 1.548-2.03.444-.343.975-.67 1.703-.886.777-.23 1.734-.308 2.925-.308h10.888c1.19 0 2.147.078 2.924.308a5.1 5.1 0 0 1 1.703.885c.77.593 1.312 1.434 1.548 2.031.473 1.204.478 2.57.478 3.43v10.888c0 .86-.005 2.225-.478 3.43" clip-rule="evenodd"/><path fill="#fff" d="M23.35 21.81c-.364-.384-1.001-.63-1.754-.63s-1.39.246-1.754.63c-.19.2-.29.404-.321.696-.061.565-.027 1.052.04 1.83.062.742.182 1.73.338 2.738.112.716.202 1.103.284 1.38.134.45.633.842 1.413.842s1.278-.393 1.412-.842c.082-.277.172-.664.284-1.38.156-1.008.276-1.996.339-2.738.066-.778.1-1.265.04-1.83a1.1 1.1 0 0 0-.322-.697m-3.733-3.412a1.98 1.98 0 1 0 3.96 0 1.98 1.98 0 0 0-3.96 0m1.956-7.814c-4.631.013-8.426 3.77-8.483 8.4-.047 3.752 2.348 6.96 5.692 8.137a.114.114 0 0 0 .15-.124 48 48 0 0 1-.123-.872.29.29 0 0 0-.172-.23 7.43 7.43 0 0 1-4.459-6.876c.04-4.029 3.33-7.314 7.359-7.346 4.119-.034 7.48 3.308 7.48 7.42a7.43 7.43 0 0 1-4.46 6.802.29.29 0 0 0-.171.23q-.058.434-.123.872a.114.114 0 0 0 .15.124c3.312-1.165 5.693-4.324 5.693-8.029 0-4.7-3.83-8.522-8.533-8.508m-.154 3.903a4.616 4.616 0 0 1 4.794 4.608c0 1.324-.561 2.519-1.458 3.36a.35.35 0 0 0-.11.277c.017.317.01.625-.01.972a.112.112 0 0 0 .174.1 5.7 5.7 0 0 0 2.492-4.71 5.706 5.706 0 0 0-5.925-5.695c-3.016.117-5.435 2.604-5.474 5.622a5.7 5.7 0 0 0 2.492 4.783.112.112 0 0 0 .175-.1 8 8 0 0 1-.01-.972.35.35 0 0 0-.111-.276 4.6 4.6 0 0 1-1.456-3.485 4.624 4.624 0 0 1 4.427-4.484M43 15.396V9.604h.91v5.028h2.758v.764zm5.009-4.897c-.282 0-.528-.218-.528-.495 0-.278.246-.504.528-.504.291 0 .528.226.528.504 0 .277-.237.495-.528.495m-.4 4.897v-4.194h.818v4.194zm1.695-.547.391-.573c.3.312.883.599 1.475.599.619 0 .946-.243.946-.6 0-.416-.5-.555-1.065-.677-.746-.165-1.62-.356-1.62-1.259 0-.668.601-1.241 1.675-1.241.755 0 1.302.26 1.675.599l-.364.547c-.255-.295-.747-.512-1.302-.512s-.9.208-.9.547c0 .364.472.486 1.018.607.765.165 1.675.365 1.675 1.329 0 .72-.619 1.285-1.775 1.285-.737 0-1.383-.217-1.83-.651m5.81.651c-.692 0-1.047-.373-1.047-1.033v-2.58h-.728v-.685h.728v-1.146h.819v1.146h.892v.686h-.892v2.405c0 .295.146.512.428.512a.65.65 0 0 0 .446-.165l.21.59c-.174.157-.429.27-.856.27m1.258-2.206c0-1.215.92-2.196 2.203-2.196 1.32 0 2.139.98 2.139 2.266v.191h-3.477c.064.712.61 1.303 1.493 1.303.464 0 .974-.174 1.301-.495l.383.512c-.437.408-1.056.625-1.766.625-1.31 0-2.276-.886-2.276-2.206m2.203-1.554c-.883 0-1.302.678-1.347 1.25h2.685c-.018-.555-.41-1.25-1.338-1.25m6.092 3.656v-2.683c0-.695-.373-.92-.938-.92-.51 0-.974.295-1.21.607v2.996h-.82v-4.194h.82v.59a2.14 2.14 0 0 1 1.556-.694c.929 0 1.411.469 1.411 1.354v2.944zm6.331.104c-1.365 0-2.22-.99-2.22-2.206 0-1.206.855-2.196 2.22-2.196 1.374 0 2.22.99 2.22 2.196 0 1.216-.846 2.206-2.22 2.206m0-.695c.883 0 1.365-.712 1.365-1.51 0-.79-.482-1.503-1.365-1.503-.874 0-1.365.712-1.365 1.502 0 .8.491 1.511 1.365 1.511m6.183.59v-2.682c0-.695-.373-.92-.938-.92-.51 0-.974.295-1.21.607v2.996h-.82v-4.194h.82v.59a2.14 2.14 0 0 1 1.556-.694c.929 0 1.411.469 1.411 1.354v2.944zM45.023 31.5l1.032-3.047h4.297l1.03 3.047h1.852l-4.07-11.273h-1.89L43.203 31.5zm4.883-4.453H46.5l1.68-4.945h.047zm6.055 7.172v-4.07H56c.469.913 1.406 1.492 2.586 1.492 2.062 0 3.43-1.649 3.43-4.25s-1.375-4.243-3.461-4.243c-1.188 0-2.133.602-2.617 1.547h-.032v-1.414h-1.633V34.22zm2.148-4.008c-1.297 0-2.156-1.11-2.156-2.82 0-1.696.867-2.82 2.156-2.82 1.336 0 2.172 1.1 2.172 2.82 0 1.726-.836 2.82-2.172 2.82M65 34.219v-4.07h.04c.468.913 1.405 1.492 2.585 1.492 2.063 0 3.43-1.649 3.43-4.25s-1.375-4.243-3.461-4.243c-1.188 0-2.133.602-2.617 1.547h-.032v-1.414h-1.632V34.22zm2.148-4.008c-1.296 0-2.156-1.11-2.156-2.82 0-1.696.867-2.82 2.156-2.82 1.336 0 2.172 1.1 2.172 2.82 0 1.726-.836 2.82-2.172 2.82m6.954 1.289V20.227h-1.688V31.5zm5.242.156c1.883 0 3.304-1.07 3.539-2.57H81.28c-.226.719-.937 1.203-1.898 1.203-1.352 0-2.211-.945-2.211-2.375v-.102h5.805v-.578c0-2.492-1.422-4.101-3.704-4.101-2.32 0-3.804 1.719-3.804 4.297 0 2.593 1.46 4.226 3.875 4.226m1.945-5.023h-4.11c.087-1.242.915-2.14 2.094-2.14 1.18 0 1.977.882 2.016 2.14m8.188 4.867v-3.852h2.421c2.211 0 3.766-1.515 3.766-3.718 0-2.196-1.523-3.703-3.71-3.703h-4.227V31.5zm2.007-5.32h-2.007v-4.477h2.015c1.516 0 2.383.813 2.383 2.235s-.867 2.242-2.39 2.242m9.039 5.476c2.352 0 3.899-1.617 3.899-4.265 0-2.641-1.555-4.258-3.899-4.258-2.343 0-3.898 1.617-3.898 4.258 0 2.648 1.547 4.265 3.898 4.265m0-1.39c-1.32 0-2.18-1.047-2.18-2.875 0-1.82.86-2.868 2.18-2.868s2.18 1.047 2.18 2.868c0 1.828-.851 2.875-2.18 2.875m8.289 1.375c1.196 0 2.133-.602 2.618-1.54h.031V31.5h1.641V20.227h-1.696v4.421h-.031c-.461-.906-1.398-1.5-2.578-1.5-2.063 0-3.438 1.649-3.438 4.243 0 2.593 1.375 4.25 3.453 4.25m.446-1.43c-1.336 0-2.172-1.086-2.172-2.82 0-1.727.836-2.82 2.172-2.82 1.297 0 2.164 1.116 2.164 2.82 0 1.718-.867 2.82-2.164 2.82m9.086 1.445c1.976 0 3.375-1.187 3.554-2.937h-1.625c-.195.953-.875 1.523-1.914 1.523-1.312 0-2.179-1.047-2.179-2.851 0-1.766.859-2.852 2.164-2.852 1.101 0 1.758.695 1.929 1.57h1.61c-.149-1.617-1.438-2.976-3.555-2.976-2.336 0-3.867 1.648-3.867 4.258 0 2.656 1.531 4.265 3.883 4.265m7.156-.015c1.078 0 2.117-.578 2.594-1.493h.039V31.5h1.617v-5.664c0-1.648-1.273-2.703-3.266-2.703-2.031 0-3.296 1.094-3.39 2.578h1.594c.148-.734.757-1.203 1.734-1.203 1.031 0 1.648.547 1.648 1.46v.634l-2.25.132c-1.953.11-3.054.993-3.054 2.43 0 1.477 1.125 2.477 2.734 2.477m.469-1.336c-.907 0-1.5-.47-1.5-1.188 0-.703.57-1.148 1.578-1.219l2.023-.125v.649c0 1.07-.922 1.883-2.101 1.883m8.5 1.351c1.937 0 3.336-1.031 3.336-2.531 0-1.187-.641-1.844-2.321-2.234l-1.336-.305c-.89-.203-1.265-.555-1.265-1.07 0-.657.609-1.102 1.523-1.102.946 0 1.532.5 1.625 1.297h1.586c-.055-1.516-1.297-2.578-3.211-2.578-1.89 0-3.172 1.008-3.172 2.476 0 1.196.774 1.946 2.336 2.305l1.336.313c.899.203 1.203.515 1.203 1.046 0 .672-.625 1.094-1.64 1.094-1.031 0-1.617-.422-1.774-1.281h-1.672c.157 1.562 1.391 2.57 3.446 2.57m7.445-.101c.375 0 .75-.032.938-.078V30.14c-.11.023-.383.039-.555.039-.688 0-1-.32-1-1.032v-4.53h1.562V23.28h-1.562v-1.945h-1.695v1.945h-1.196v1.336h1.196v4.719c0 1.586.648 2.219 2.312 2.219m5.414.101c1.938 0 3.336-1.031 3.336-2.531 0-1.187-.641-1.844-2.32-2.234l-1.336-.305c-.891-.203-1.266-.555-1.266-1.07 0-.657.61-1.102 1.524-1.102.945 0 1.531.5 1.625 1.297h1.586c-.055-1.516-1.297-2.578-3.211-2.578-1.891 0-3.172 1.008-3.172 2.476 0 1.196.773 1.946 2.336 2.305l1.336.313c.898.203 1.203.515 1.203 1.046 0 .672-.625 1.094-1.641 1.094-1.031 0-1.617-.422-1.773-1.281h-1.672c.156 1.562 1.39 2.57 3.445 2.57"/></g><defs><linearGradient id="b" x1="1219.27" x2="1219.27" y1="7.902" y2="2427.42" gradientUnits="userSpaceOnUse"><stop stop-color="#F452FF"/><stop offset="1" stop-color="#832BC1"/></linearGradient><clipPath id="a"><path fill="#fff" d="M0 .5h160v40H0z"/></clipPath></defs></svg>
