<svg xmlns="http://www.w3.org/2000/svg" width="160" height="41" fill="none"><g clip-path="url(#a)"><path fill="#000" d="M153 .5H7a7 7 0 0 0-7 7v26a7 7 0 0 0 7 7h146a7 7 0 0 0 7-7v-26a7 7 0 0 0-7-7"/><path fill="#fff" d="M43 15.396V9.604h.91v5.028h2.758v.764zm5.009-4.897c-.282 0-.528-.218-.528-.495 0-.278.246-.504.528-.504.291 0 .528.226.528.504 0 .277-.237.495-.528.495m-.4 4.897v-4.194h.818v4.194zm1.695-.547.391-.573c.3.312.883.599 1.475.599.619 0 .946-.243.946-.6 0-.416-.5-.555-1.065-.677-.746-.165-1.62-.356-1.62-1.259 0-.668.601-1.241 1.675-1.241.755 0 1.302.26 1.675.599l-.364.547c-.255-.295-.747-.512-1.302-.512s-.9.208-.9.547c0 .364.472.486 1.018.607.765.165 1.675.365 1.675 1.329 0 .72-.619 1.285-1.775 1.285-.737 0-1.383-.217-1.83-.651m5.81.651c-.692 0-1.047-.373-1.047-1.033v-2.58h-.728v-.685h.728v-1.146h.819v1.146h.892v.686h-.892v2.405c0 .295.146.512.428.512a.65.65 0 0 0 .446-.165l.21.59c-.174.157-.429.27-.856.27m1.258-2.206c0-1.215.92-2.196 2.203-2.196 1.32 0 2.139.98 2.139 2.266v.191h-3.477c.064.712.61 1.303 1.493 1.303.464 0 .974-.174 1.301-.495l.383.512c-.437.408-1.056.625-1.766.625-1.31 0-2.276-.886-2.276-2.206m2.203-1.554c-.883 0-1.302.678-1.347 1.25h2.685c-.018-.555-.41-1.25-1.338-1.25m6.092 3.656v-2.683c0-.695-.373-.92-.938-.92-.51 0-.974.295-1.21.607v2.996h-.82v-4.194h.82v.59a2.14 2.14 0 0 1 1.556-.694c.929 0 1.411.469 1.411 1.354v2.944zm6.331.104c-1.365 0-2.22-.99-2.22-2.206 0-1.206.855-2.196 2.22-2.196 1.374 0 2.22.99 2.22 2.196 0 1.216-.846 2.206-2.22 2.206m0-.695c.883 0 1.365-.712 1.365-1.51 0-.79-.482-1.503-1.365-1.503-.874 0-1.365.712-1.365 1.502 0 .8.491 1.511 1.365 1.511m6.183.59v-2.682c0-.695-.373-.92-.938-.92-.51 0-.974.295-1.21.607v2.996h-.82v-4.194h.82v.59a2.14 2.14 0 0 1 1.556-.694c.929 0 1.411.469 1.411 1.354v2.944z"/><path fill="#FC7E0F" d="M22.5 32.5A12.47 12.47 0 0 1 10 20 12.47 12.47 0 0 1 22.5 7.5 12.47 12.47 0 0 1 35 20a12.47 12.47 0 0 1-12.5 12.5m0-4.948.938-.937-.938-3.594-.937 3.594zm-1.198-.052-.469 1.77 1.094-1.093zm2.396 0-.625.625 1.094 1.094zm.885 3.23L22.5 28.645l-2.083 2.083c.677.104 1.354.209 2.083.209s1.406-.053 2.083-.209M22.5 9.062c-6.042 0-10.937 4.895-10.937 10.937 0 4.792 3.072 8.854 7.343 10.313l2.344-8.698c-.52-.365-.833-.99-.833-1.667a2.09 2.09 0 0 1 2.083-2.083 2.09 2.09 0 0 1 2.083 2.083c0 .677-.312 1.25-.833 1.667l2.344 8.698A10.88 10.88 0 0 0 33.437 20c0-6.042-4.895-10.937-10.937-10.937m7.135 16.354c-.26.312-.729.416-1.093.156-.365-.26-.417-.73-.157-1.042 0 0 1.407-1.875 1.407-4.531s-1.407-4.531-1.407-4.531c-.26-.313-.208-.781.157-1.042.364-.26.833-.156 1.093.156.105.104 1.72 2.24 1.72 5.417s-1.615 5.313-1.72 5.417m-3.802-2.032c-.312-.312-.26-.885.052-1.198 0 0 .782-.833.782-2.187s-.782-2.135-.782-2.187c-.312-.313-.312-.834-.052-1.198.313-.365.782-.365 1.094-.052.052.052 1.302 1.354 1.302 3.437s-1.25 3.385-1.302 3.438c-.312.312-.781.26-1.094-.053m-6.666 0c-.313.313-.782.365-1.094.052-.052-.104-1.302-1.354-1.302-3.437s1.25-3.333 1.302-3.437c.312-.313.833-.313 1.094.052.312.312.26.885-.052 1.198 0 .052-.782.833-.782 2.187s.782 2.188.782 2.188a.88.88 0 0 1 .052 1.197m-2.709 2.188c-.364.26-.833.156-1.093-.156-.105-.105-1.72-2.24-1.72-5.417s1.615-5.312 1.72-5.417c.26-.312.729-.416 1.093-.156.365.26.417.73.157 1.042 0 0-1.407 1.875-1.407 4.531s1.407 4.531 1.407 4.531c.26.313.156.782-.157 1.042"/><path fill="#fff" d="M48.284 31.7c3.444 0 5.611-2.375 5.611-6.185s-2.167-6.192-5.611-6.192c-3.453 0-5.612 2.382-5.612 6.192s2.159 6.184 5.612 6.184m0-1.636c-2.275 0-3.71-1.76-3.71-4.549 0-2.797 1.435-4.557 3.71-4.557s3.702 1.76 3.702 4.557c0 2.79-1.428 4.549-3.702 4.549M59.772 31.5l3.13-8.732h-1.877l-2.191 6.98h-.033l-2.192-6.98H54.7l3.146 8.732zm7.886.166c2 0 3.51-1.137 3.76-2.73h-1.702c-.24.763-.996 1.277-2.017 1.277-1.436 0-2.349-1.004-2.349-2.523v-.108h6.168v-.614c0-2.648-1.511-4.358-3.935-4.358-2.465 0-4.042 1.826-4.042 4.565 0 2.756 1.552 4.491 4.117 4.491m2.067-5.337h-4.367c.092-1.32.972-2.275 2.225-2.275s2.1.938 2.142 2.275m4.972 5.171v-5.23c0-1.236.714-2.008 1.867-2.008.35 0 .665.041.806.1v-1.67a3.3 3.3 0 0 0-.615-.066c-1.029 0-1.81.606-2.1 1.627h-.041v-1.485h-1.71V31.5zm7.52.166c2.1 0 3.586-1.262 3.777-3.121h-1.726c-.208 1.013-.93 1.619-2.034 1.619-1.395 0-2.316-1.113-2.316-3.03 0-1.876.913-3.03 2.3-3.03 1.17 0 1.867.739 2.05 1.669h1.71c-.158-1.719-1.528-3.163-3.777-3.163-2.482 0-4.11 1.751-4.11 4.524 0 2.822 1.628 4.532 4.126 4.532m7.604-.017c1.145 0 2.25-.614 2.756-1.585h.041V31.5h1.718v-6.018c0-1.751-1.353-2.872-3.47-2.872-2.157 0-3.502 1.162-3.602 2.74h1.694c.157-.781.805-1.28 1.842-1.28 1.096 0 1.752.582 1.752 1.553v.672l-2.39.141c-2.076.117-3.247 1.055-3.247 2.582 0 1.569 1.196 2.631 2.906 2.631m.498-1.419c-.963 0-1.594-.498-1.594-1.262 0-.747.606-1.22 1.677-1.295l2.15-.132v.689c0 1.137-.98 2-2.233 2m9.031 1.436c2.059 0 3.545-1.096 3.545-2.69 0-1.261-.681-1.958-2.466-2.373l-1.42-.324c-.945-.216-1.344-.59-1.344-1.137 0-.698.647-1.17 1.619-1.17 1.004 0 1.627.53 1.726 1.377h1.685c-.058-1.61-1.378-2.74-3.411-2.74-2.01 0-3.37 1.072-3.37 2.632 0 1.27.821 2.067 2.481 2.449l1.42.332c.955.216 1.278.548 1.278 1.112 0 .714-.664 1.162-1.743 1.162-1.096 0-1.718-.448-1.884-1.36H95.69c.166 1.66 1.477 2.73 3.66 2.73m7.911-.108c.398 0 .797-.033.996-.083v-1.42a4 4 0 0 1-.59.042c-.73 0-1.062-.34-1.062-1.096v-4.814h1.66v-1.42h-1.66v-2.066h-1.801v2.067h-1.27v1.419h1.27v5.014c0 1.685.689 2.357 2.457 2.357"/></g><defs><clipPath id="a"><path fill="#fff" d="M0 .5h160v40H0z"/></clipPath></defs></svg>
